<?xml version="1.0" standalone="no"?><!DOCTYPE svg PUBLIC "-//W3C//DTD SVG 1.1//EN" "http://www.w3.org/Graphics/SVG/1.1/DTD/svg11.dtd"><svg t="1691734195808" class="icon" viewBox="0 0 1024 1024" version="1.1" xmlns="http://www.w3.org/2000/svg" p-id="7599" xmlns:xlink="http://www.w3.org/1999/xlink" width="200" height="200"><path d="M496.64 1024c-80.676571-74.898286-77.385143-159.670857-77.385143-159.670857h154.770286S577.316571 949.174857 496.64 1024z m0-939.154286c-68.022857 89.819429-200.265143 294.034286-200.265143 524.434286 0 66.56 12.507429 122.441143 25.161143 161.792h350.208a532.699429 532.699429 0 0 0 25.161143-161.865143c0-230.253714-132.242286-434.468571-200.265143-524.434286z m253.805714 524.434286c0 151.698286-58.075429 251.830857-58.075428 251.830857l-62.171429-36.425143H363.081143l-62.171429 36.425143s-58.221714-100.205714-58.221714-251.904C242.834286 275.017143 496.64 0.073143 496.64 0c0.073143 0.073143 253.805714 275.017143 253.805714 609.28z m35.108572 99.547429c0 58.221714-25.746286 121.417143-43.52 148.114285h123.245714l-13.677714-83.894857-65.974857-64.219428z m-643.876572 64.292571l-13.677714 83.821714h123.245714c-17.846857-26.624-43.593143-89.892571-43.593143-148.041143l-65.974857 64.219429z m306.614857-242.029714a11.922286 11.922286 0 1 0-2.048 23.844571 11.922286 11.922286 0 0 0 2.048-23.844571z m38.180572 0a11.922286 11.922286 0 1 0-1.974857 23.844571 11.922286 11.922286 0 0 0 1.974857-23.844571z m38.180571 0a11.922286 11.922286 0 1 0-1.974857 23.844571 11.922286 11.922286 0 0 0 1.974857-23.844571z m130.486857 150.674285a61.659429 61.659429 0 1 1-115.2-30.646857l-15.36-20.992c-33.353143 14.628571-72.045714 8.850286-99.693714-14.774857l-17.188571 14.994286a36.937143 36.937143 0 1 1-23.478857-26.843429l18.285714-15.945143a94.573714 94.573714 0 0 1 8.265143-101.961142l-19.236572-20.918858c-1.389714 0.146286-2.779429 0.438857-4.169143 0.438858a31.378286 31.378286 0 1 1 30.573715-24.502858l19.382857 21.138286c29.257143-17.846857 66.048-18.505143 95.817143-1.536l16.530285-16.457143a48.786286 48.786286 0 1 1 30.281143 30.281143l-15.067428 15.067429c24.429714 35.328 22.016 82.724571-5.851429 115.419428l13.970286 19.163429a61.732571 61.732571 0 0 1 82.139428 58.148571z m-168.667428-63.926857A74.825143 74.825143 0 1 0 490.057143 468.187429a74.825143 74.825143 0 0 0-3.584 149.650285z" fill="#D77310" p-id="7600"></path></svg>