<?xml version="1.0" standalone="no"?><!DOCTYPE svg PUBLIC "-//W3C//DTD SVG 1.1//EN" "http://www.w3.org/Graphics/SVG/1.1/DTD/svg11.dtd"><svg t="1691776510329" class="icon" viewBox="0 0 1024 1024" version="1.1" xmlns="http://www.w3.org/2000/svg" p-id="7771" xmlns:xlink="http://www.w3.org/1999/xlink" width="200" height="200"><path d="M681.664 631.168c-17.941333 0-33.109333 2.816-48.256 8.981333l-48.234667-57.216c36.48-42.090667 60.586667-99.306667 60.586667-159.914666 0-60.586667-21.333333-111.637333-57.237333-153.728l30.293333-26.922667c17.962667 8.96 36.48 15.146667 57.237333 15.146667 69.568 0 126.805333-57.216 126.805334-126.784 0-69.568-57.237333-126.805333-126.805334-126.805334-69.546667 0-126.784 57.237333-126.784 126.805334 0 15.146667 2.794667 33.088 8.96 45.44l-39.253333 33.088a245.226667 245.226667 0 0 0-123.434667-33.088c-48.256 0-93.696 15.146667-132.970666 35.904l-45.44-57.237334c0-6.165333 2.794667-15.146667 2.794666-21.312 0-44.885333-35.904-81.344-80.789333-81.344h-0.554667c-44.885333 0-81.365333 35.904-81.365333 80.789334v0.554666c0 44.885333 35.925333 81.344 80.810667 81.344h9.514666l48.256 60.032c-30.293333 42.090667-51.050667 93.696-51.050666 147.562667 0 39.274667 8.96 78.549333 26.922666 111.658667l-39.253333 33.088c-8.981333-6.186667-21.333333-6.186667-33.109333-6.186667C44.885333 561.045333 0 606.506667 0 660.373333c0 54.4 45.44 99.306667 99.306667 99.306667 53.866667 0 99.306667-45.44 99.306666-99.306667 0-8.981333 0-17.962667-2.816-26.944l33.109334-30.293333c45.44 39.274667 102.677333 63.402667 168.874666 63.402667 36.48 0 69.546667-6.186667 99.306667-21.333334l51.050667 63.402667c-12.352 21.333333-21.333333 48.256-21.333334 75.178667 0 84.736 69.589333 153.728 157.098667 153.728 87.530667 0 157.098667-69.546667 157.098667-153.728 0.554667-83.029333-71.808-152.597333-159.338667-152.597334z m-286.698667-12.330667c-108.842667 0-199.168-87.530667-199.168-195.818666 0-108.842667 90.325333-195.797333 199.168-195.797334s199.168 87.530667 199.168 195.797334c0 108.842667-90.325333 195.818667-199.168 195.818666z m-63.381333-198.613333c0.554667 20.202667-15.146667 36.48-35.349333 37.034667a35.925333 35.925333 0 0 1-37.034667-35.349334v-1.706666c0-20.181333 16.277333-35.882667 36.48-35.882667 20.181333-0.576 35.904 15.701333 35.904 35.904z m96.490667 0c0 20.202667-16.277333 36.48-35.904 36.48-20.202667 0-36.48-16.277333-36.48-35.925333 0-20.202667 16.277333-35.904 36.48-35.904s35.904 15.146667 35.904 35.349333z m99.861333 0c0 20.202667-16.256 36.48-35.904 36.48-19.626667 0-36.48-16.277333-36.48-35.925333 0-20.202667 16.277333-35.904 36.48-35.904 19.626667-1.130667 35.904 15.146667 35.904 35.349333z" fill="#FF6A00" p-id="7772"></path></svg>